<?xml version="1.0" encoding="utf-8"?>
<!-- Generator: Adobe Illustrator 25.3.1, SVG Export Plug-In . SVG Version: 6.00 Build 0)  -->
<svg version="1.1" id="Layer_1" xmlns="http://www.w3.org/2000/svg" xmlns:xlink="http://www.w3.org/1999/xlink" x="0px" y="0px"
	 viewBox="0 0 1202.3 409.7" style="enable-background:new 0 0 1202.3 409.7;" xml:space="preserve">
<style type="text/css">
	.st0{fill:#000A37;}
	.st1{fill:#328CEB;}
	.st2{fill:url(#SVGID_1_);}
	.st3{fill:url(#SVGID_2_);}
	.st4{fill:url(#SVGID_3_);}
</style>
<g>
	<g>
		<polygon class="st0" points="515.5,138.2 477.1,229.4 440.1,138.2 400,138.2 456.2,272.2 496.3,272.2 552.8,138.2 		"/>
		<g>
			<path class="st0" d="M682.8,169.3c-6.3-10.3-15-18.4-26.1-24.3c-11.1-5.9-23.7-8.8-37.8-8.8c-14.3,0-26.9,3-38,8.8
				c-11,5.9-19.8,14-26.1,24.4c-6.4,10.4-9.6,22.3-9.6,35.7c0,13.3,3.2,25.1,9.6,35.5c6.4,10.4,15.1,18.6,26.1,24.5
				c11,6,23.7,9,38,9c14.1,0,26.7-3,37.8-9c11.1-6,19.8-14.2,26.1-24.5c6.3-10.4,9.5-22.2,9.5-35.5
				C692.3,191.6,689.1,179.6,682.8,169.3z M648.5,225c-3,5.6-7.1,9.8-12.2,12.8c-5.2,3-11,4.5-17.4,4.5s-12.3-1.5-17.4-4.5
				c-5.2-3-9.3-7.3-12.3-12.8c-3.1-5.6-4.6-12.2-4.6-19.8c0-7.8,1.5-14.4,4.6-19.9c3.1-5.5,7.2-9.7,12.3-12.7c5.1-3,11-4.5,17.4-4.5
				s12.3,1.5,17.4,4.5c5.1,3,9.2,7.2,12.2,12.7s4.5,12.1,4.5,19.9C652.9,212.8,651.4,219.4,648.5,225z"/>
		</g>
		<path class="st0" d="M708.2,138.2v134h38.8v-63.2c0-12.8,3.3-22.2,9.8-28.3s15.2-9.1,25.8-9.1c1.5,0,2.9,0,4.2,0.1
			c1.3,0.1,2.8,0.2,4.5,0.4v-35.9c-12.6,0-23.3,2.5-32.1,7.4c-5.6,3.1-10.3,7.2-13.9,12.2v-17.6H708.2z"/>
		<g>
			<path class="st0" d="M925.3,168.5c-6.1-10.4-14.5-18.3-25-23.9s-22.4-8.3-35.5-8.3c-13.6,0-25.8,3-36.6,8.8
				c-10.8,5.9-19.3,14-25.5,24.4c-6.2,10.4-9.3,22.3-9.3,35.7c0,13.3,3.2,25.1,9.5,35.5c6.3,10.4,15.2,18.6,26.8,24.5
				c11.5,6,24.9,9,40.2,9c12.1,0,22.8-1.9,32.1-5.6c9.3-3.7,17-9.1,23.2-16.1l-20.7-22.4c-4.5,4.3-9.4,7.5-14.8,9.7
				c-5.4,2.2-11.7,3.2-18.8,3.2c-8,0-14.9-1.5-20.8-4.4c-5.9-2.9-10.5-7.1-13.7-12.7c-1.8-3-3-6.3-3.8-9.8h101.3
				c0.2-1.7,0.3-3.4,0.5-5.4c0.2-1.9,0.2-3.6,0.2-5.1C934.5,191.2,931.5,178.8,925.3,168.5z M832,193.5c0.7-4.2,1.9-8,3.7-11.3
				c2.8-5.2,6.8-9.3,11.8-12.2c5.1-2.9,10.9-4.4,17.6-4.4s12.4,1.5,17.4,4.4c5,2.9,8.9,6.9,11.7,12.1c1.9,3.4,3.1,7.2,3.7,11.5
				L832,193.5L832,193.5z"/>
		</g>
		<g>
			<path class="st0" d="M1048.3,150.6c-11.3-9.6-27.1-14.4-47.6-14.4c-10.6,0-21.1,1.4-31.4,4.2c-10.3,2.8-19.1,6.8-26.4,12
				l13.9,27.1c4.8-3.8,10.7-6.9,17.6-9.1s13.9-3.4,21-3.4c10.5,0,18.2,2.3,23.3,7c5.1,4.6,7.6,11.1,7.6,19.4h-30.9
				c-13.6,0-24.7,1.7-33.1,5.1s-14.7,8.1-18.6,14.1s-5.8,13-5.8,20.9c0,7.6,2,14.5,6,20.7c4,6.1,9.7,11,17.2,14.6
				c7.5,3.6,16.4,5.4,26.9,5.4c11.8,0,21.4-2.2,28.9-6.7c5.1-3,9-7,12-12v16.7h36.3v-76.4C1065.3,175.3,1059.6,160.3,1048.3,150.6z
				 M1026.4,229.8c-2.3,6-6.1,10.5-11.2,13.6c-5.2,3.1-11,4.6-17.4,4.6c-6.8,0-12.2-1.5-16.1-4.4c-3.9-2.9-5.8-6.9-5.8-11.8
				c0-4.5,1.7-8.2,5.1-11.2c3.4-3,9.7-4.5,18.8-4.5h26.6L1026.4,229.8L1026.4,229.8z"/>
		</g>
		<path class="st0" d="M1194.2,213c-3-4.7-6.8-8.5-11.6-11.2c-4.7-2.7-10-4.9-15.8-6.4c-5.8-1.5-11.6-2.6-17.3-3.4
			c-5.7-0.8-11-1.6-15.8-2.6c-4.8-1-8.7-2.3-11.6-4c-2.9-1.7-4.4-4.1-4.4-7.5c0-3.6,2-6.6,6-9c4-2.3,10.3-3.5,18.9-3.5
			c6.1,0,12.5,0.7,19.1,2.1s13.1,4,19.6,7.8l12.9-27.6c-6.3-3.8-14.2-6.7-23.7-8.7c-9.5-2-18.8-3-27.9-3c-12.9,0-24.1,1.9-33.4,5.6
			c-9.3,3.7-16.4,8.8-21.3,15.3s-7.3,13.9-7.3,22.4c0,7.6,1.4,13.9,4.4,18.7c2.9,4.8,6.8,8.6,11.6,11.5c4.8,2.8,10.1,4.9,15.9,6.4
			s11.6,2.5,17.3,3.4c5.7,0.8,11,1.7,15.8,2.5s8.7,2,11.6,3.6c2.9,1.6,4.4,3.9,4.4,7.1c0,3.8-1.9,6.8-5.6,9
			c-3.7,2.2-10.1,3.2-19.1,3.2c-8.1,0-16.4-1.2-24.8-3.6c-8.4-2.4-15.7-5.5-21.8-9.3l-12.9,27.9c6.1,4.1,14.5,7.6,25,10.3
			s21.5,4.1,33,4.1c13.4,0,24.9-1.8,34.2-5.5c9.4-3.6,16.6-8.7,21.5-15.1c5-6.4,7.5-13.7,7.5-22
			C1198.7,223.9,1197.2,217.8,1194.2,213z"/>
	</g>
	<g>
		<rect x="568.1" y="299" class="st1" width="6.3" height="65.7"/>
		<path class="st1" d="M618.6,322.2c-3.3-3-7.9-4.5-13.9-4.5c-3.7,0-7.1,0.5-10.4,1.6c-3.3,1.1-6.1,2.6-8.5,4.6l2.8,4.7
			c1.9-1.6,4.2-3,6.9-4s5.6-1.5,8.6-1.5c4.4,0,7.7,1.1,9.9,3.2c2.2,2.1,3.3,5.2,3.3,9.1v2.8h-14.8c-4.4,0-8,0.6-10.6,1.8
			c-2.6,1.2-4.5,2.8-5.7,4.8c-1.2,2-1.7,4.2-1.7,6.6c0,2.7,0.7,5,2,7s3.3,3.6,5.9,4.8s5.6,1.7,9.1,1.7c4.4,0,8.1-0.9,11-2.7
			c2.1-1.3,3.8-3,5-5v7.3h6v-28.9C623.5,329.7,621.9,325.2,618.6,322.2z M611.6,357.7c-2.6,1.6-5.6,2.4-9.2,2.4
			c-3.7,0-6.6-0.8-8.7-2.4c-2.1-1.6-3.1-3.7-3.1-6.4c0-2.4,0.9-4.3,2.6-5.9s4.8-2.4,9.3-2.4h14.6v7.6
			C616.1,353.7,614.2,356.1,611.6,357.7z"/>
		<path class="st1" d="M675.9,329c-2-3.5-4.8-6.3-8.3-8.3s-7.5-3-11.9-3c-4,0-7.6,0.9-10.9,2.7c-2.8,1.6-5,3.8-6.8,6.5v-28h-6.3
			v65.7h6v-9.3c1.8,3,4.1,5.3,7,7c3.2,1.9,6.9,2.8,11,2.8c4.4,0,8.4-1,11.9-3c3.5-2,6.3-4.8,8.3-8.4c2-3.6,3-7.7,3-12.4
			C678.9,336.7,677.9,332.5,675.9,329z M670.3,350.9c-1.5,2.7-3.6,4.9-6.2,6.4c-2.6,1.5-5.5,2.3-8.8,2.3c-3.3,0-6.3-0.8-8.9-2.3
			c-2.6-1.5-4.7-3.6-6.2-6.4c-1.5-2.7-2.3-5.9-2.3-9.5c0-3.7,0.8-6.8,2.3-9.6c1.5-2.7,3.6-4.8,6.2-6.3c2.6-1.5,5.6-2.3,8.9-2.3
			c3.3,0,6.2,0.8,8.8,2.3c2.6,1.5,4.7,3.6,6.2,6.3c1.5,2.7,2.3,5.9,2.3,9.6C672.6,345,671.9,348.2,670.3,350.9z"/>
		<g>
			<g>
				<path class="st1" d="M727.8,329.1c-2-3.5-4.8-6.3-8.4-8.3c-3.6-2-7.7-3-12.3-3c-4.5,0-8.6,1-12.1,3s-6.3,4.8-8.4,8.3
					s-3.1,7.6-3.1,12.3c0,4.6,1,8.7,3.1,12.3c2.1,3.6,4.9,6.4,8.5,8.4s7.6,3,12.1,3c4.5,0,8.6-1,12.2-3c3.6-2,6.4-4.8,8.5-8.4
					c2-3.6,3-7.7,3-12.3C730.9,336.7,729.9,332.6,727.8,329.1z M722.3,350.9c-1.5,2.7-3.6,4.9-6.2,6.4c-2.6,1.5-5.6,2.3-8.9,2.3
					c-3.2,0-6.2-0.8-8.8-2.3c-2.6-1.5-4.7-3.6-6.2-6.4c-1.5-2.7-2.3-5.9-2.3-9.5c0-3.7,0.8-6.8,2.3-9.6c1.5-2.7,3.6-4.8,6.2-6.3
					c2.6-1.5,5.5-2.3,8.8-2.3s6.2,0.8,8.8,2.3s4.7,3.6,6.2,6.3s2.3,5.9,2.3,9.6C724.5,345,723.8,348.2,722.3,350.9z"/>
			</g>
		</g>
		<path class="st1" d="M752.1,320.5c-2.7,1.6-4.6,3.9-5.9,6.7v-9.1h-6v46.5h6.3V341c0-5.5,1.4-9.7,4.2-12.7c2.8-3,6.6-4.5,11.5-4.5
			c0.2,0,0.5,0,0.7,0c0.2,0,0.5,0,0.7,0v-6.1C759,317.8,755.2,318.7,752.1,320.5z"/>
		<path class="st1" d="M799.9,322.2c-3.3-3-7.9-4.5-13.9-4.5c-3.7,0-7.1,0.5-10.4,1.6c-3.3,1.1-6.1,2.6-8.5,4.6l2.8,4.7
			c1.9-1.6,4.2-3,6.9-4c2.7-1,5.6-1.5,8.6-1.5c4.4,0,7.7,1.1,9.9,3.2c2.2,2.1,3.3,5.2,3.3,9.1v2.8h-14.8c-4.4,0-8,0.6-10.6,1.8
			c-2.6,1.2-4.5,2.8-5.7,4.8c-1.2,2-1.7,4.2-1.7,6.6c0,2.7,0.7,5,2,7s3.3,3.6,5.9,4.8s5.6,1.7,9.1,1.7c4.4,0,8.1-0.9,11-2.7
			c2.1-1.3,3.8-3,5-5v7.3h6v-28.9C804.8,329.7,803.1,325.2,799.9,322.2z M792.9,357.7c-2.6,1.6-5.6,2.4-9.2,2.4
			c-3.7,0-6.6-0.8-8.7-2.4c-2.1-1.6-3.1-3.7-3.1-6.4c0-2.4,0.9-4.3,2.6-5.9s4.8-2.4,9.3-2.4h14.6v7.6
			C797.3,353.7,795.4,356.1,792.9,357.7z"/>
		<path class="st1" d="M838.9,357.3c-1.8,1.6-4.1,2.4-6.9,2.4c-2.6,0-4.6-0.7-6-2.2c-1.4-1.5-2.1-3.6-2.1-6.3v-27.8h14.2v-5.2h-14.2
			v-10.3h-6.3v10.3h-8.3v5.2h8.3v28.1c0,4.3,1.2,7.6,3.5,10s5.7,3.5,10.1,3.5c1.8,0,3.6-0.3,5.4-0.8c1.7-0.5,3.2-1.4,4.5-2.5
			L838.9,357.3z"/>
		<g>
			<g>
				<path class="st1" d="M886.9,329.1c-2-3.5-4.8-6.3-8.4-8.3c-3.6-2-7.7-3-12.3-3c-4.5,0-8.6,1-12.1,3s-6.3,4.8-8.4,8.3
					s-3.1,7.6-3.1,12.3c0,4.6,1,8.7,3.1,12.3c2.1,3.6,4.9,6.4,8.4,8.4s7.6,3,12.1,3c4.5,0,8.6-1,12.2-3c3.6-2,6.4-4.8,8.4-8.4
					c2-3.6,3.1-7.7,3.1-12.3C889.9,336.7,888.9,332.6,886.9,329.1z M881.3,350.9c-1.5,2.7-3.6,4.9-6.2,6.4c-2.6,1.5-5.6,2.3-8.9,2.3
					c-3.2,0-6.2-0.8-8.8-2.3c-2.6-1.5-4.7-3.6-6.2-6.4c-1.5-2.7-2.3-5.9-2.3-9.5c0-3.7,0.8-6.8,2.3-9.6c1.5-2.7,3.6-4.8,6.2-6.3
					c2.6-1.5,5.6-2.3,8.8-2.3s6.2,0.8,8.8,2.3s4.7,3.6,6.2,6.3s2.3,5.9,2.3,9.6C883.6,345,882.8,348.2,881.3,350.9z"/>
			</g>
		</g>
		<path class="st1" d="M909.4,320.5c-2.7,1.6-4.6,3.9-5.9,6.7v-9.1h-6v46.5h6.3V341c0-5.5,1.4-9.7,4.2-12.7s6.6-4.5,11.5-4.5
			c0.2,0,0.5,0,0.7,0c0.2,0,0.5,0,0.7,0v-6.1C916.3,317.8,912.5,318.7,909.4,320.5z"/>
		<g>
			<g>
				<path class="st1" d="M935.2,300.2c-0.9-0.8-2-1.2-3.3-1.2s-2.4,0.4-3.3,1.3c-0.9,0.9-1.3,1.9-1.3,3.1c0,1.2,0.4,2.3,1.3,3.2
					s2,1.3,3.3,1.3c1.4,0,2.5-0.4,3.3-1.3c0.9-0.9,1.3-2,1.3-3.3C936.5,302.1,936,301.1,935.2,300.2z"/>
				<rect x="928.7" y="318.2" class="st1" width="6.3" height="46.5"/>
			</g>
		</g>
		<path class="st1" d="M986.1,338.6h-2.6c0.1,0.6,0.1,1.2,0.1,1.9L986.1,338.6z"/>
		<g>
			<g>
				<path class="st1" d="M950.4,340.7c0-0.7,0.1-1.4,0.1-2H949v4.7h1.4c0-0.5-0.1-1.1-0.1-1.7L950.4,340.7L950.4,340.7z"/>
				<path class="st1" d="M986.1,338.6h-2.6c0.1,0.6,0.1,1.2,0.1,1.9L986.1,338.6z"/>
				<path class="st1" d="M986.7,329c-1.9-3.6-4.6-6.3-8-8.3s-7.3-3-11.6-3c-4.3,0-8.2,1-11.6,3c-3.4,2-6.2,4.8-8.1,8.4
					s-3,7.6-3,12.2s1,8.7,3.1,12.3c2.1,3.6,4.9,6.4,8.6,8.4c3.7,2,7.9,3,12.8,3c3.7,0,7.1-0.6,10.2-2c3.1-1.3,5.7-3.2,7.8-5.7
					l-3.5-4.1c-1.8,2.1-3.9,3.6-6.3,4.6s-5.1,1.5-7.9,1.5c-3.6,0-6.8-0.8-9.6-2.3c-2.8-1.5-5-3.6-6.6-6.3c-1.3-2.2-2-4.8-2.2-7.7
					h-1.4v-4.7h1.4c0.2-2.6,0.9-5,2-7.1c1.4-2.7,3.4-4.7,5.9-6.2c2.5-1.5,5.4-2.2,8.6-2.2c3.2,0,6.1,0.7,8.6,2.2
					c2.5,1.5,4.4,3.5,5.9,6.1c1.2,2.1,1.8,4.5,2.1,7.1h2.6l-2.5,1.9c0-0.6-0.1-1.2-0.1-1.9h-33.1c-0.1,0.7-0.1,1.3-0.1,2v1
					c0,0.6,0.1,1.1,0.1,1.7h39c0-0.4,0-0.7,0-1c0-0.3,0-0.6,0-0.9C989.6,336.7,988.6,332.6,986.7,329z"/>
			</g>
		</g>
		<path class="st1" d="M950.4,340.7c0-0.7,0.1-1.4,0.1-2H949v4.7h1.4c0-0.5-0.1-1.1-0.1-1.7L950.4,340.7L950.4,340.7z"/>
		<path class="st1" d="M1024.6,342c-1.8-0.9-3.8-1.5-5.9-2c-2.2-0.5-4.3-0.9-6.5-1.3s-4.1-0.8-5.9-1.4s-3.2-1.3-4.3-2.4
			c-1.1-1-1.6-2.4-1.6-4.2c0-2.2,1-4.1,3-5.5c2-1.5,5.1-2.2,9.2-2.2c2.4,0,4.7,0.3,7.1,0.9s4.6,1.6,6.6,3l2.7-5
			c-1.9-1.3-4.4-2.4-7.4-3.1c-3-0.8-6-1.2-9-1.2c-3.9,0-7.3,0.6-10.1,1.7c-2.7,1.1-4.8,2.7-6.2,4.7c-1.4,2-2.1,4.3-2.1,6.8
			c0,2.7,0.6,4.8,1.6,6.4s2.5,2.9,4.3,3.8c1.8,0.9,3.7,1.6,5.9,2.1c2.2,0.5,4.3,0.9,6.5,1.2c2.2,0.4,4.2,0.8,5.9,1.3
			s3.2,1.2,4.3,2.2c1.1,1,1.6,2.3,1.6,4c0,2.3-1,4.1-2.9,5.5c-1.9,1.4-5.1,2.1-9.6,2.1c-3.2,0-6.3-0.5-9.3-1.5
			c-2.9-1-5.4-2.3-7.3-3.7l-2.8,5c1.9,1.6,4.6,3,8.1,4.1c3.4,1.1,7.1,1.6,10.9,1.6c4.1,0,7.5-0.5,10.4-1.6c2.9-1.1,5.1-2.6,6.6-4.6
			c1.5-2,2.3-4.3,2.3-7c0-2.5-0.6-4.6-1.6-6.1C1027.8,344.1,1026.4,342.9,1024.6,342z"/>
	</g>
</g>
<g>
	
		<linearGradient id="SVGID_1_" gradientUnits="userSpaceOnUse" x1="18.6472" y1="289.8218" x2="237.1772" y2="205.3594" gradientTransform="matrix(1 0 0 -1 0 411.5378)">
		<stop  offset="2.180000e-02" style="stop-color:#1CE0FF"/>
		<stop  offset="0.286" style="stop-color:#27B6F5"/>
		<stop  offset="0.5306" style="stop-color:#328CEB"/>
		<stop  offset="0.9988" style="stop-color:#5528DC"/>
	</linearGradient>
	<path class="st2" d="M88.5,253.1c0.1,0.5,0.3,1,0.4,1.6c10.6,19.2,25,36,42.3,49.4c0.2,0.1,0.4,0.3,0.5,0.4
		c1.4,0.9,2.4,1.2,3.8,1.3c2.8,0.2,6.1-1,5.6-6.4l-0.4-3.4c-2.1-18-3.3-36.3-3.3-54.9c0-5.8,0.1-11.5,0.3-17.3
		c2.1-56.5,14.4-110.3,35-159.8c0.6-1.4,1.2-2.9,1.8-4.4c0.6-1.5,0.8-3,0.8-4.6c-0.2-9.6-8-17.8-17.8-17.8c-1.1,0-2.2,0.1-3.3,0.3
		c-0.9,0.2-1.7,0.4-2.5,0.7l-1.5,0.6c-21.1,9.8-40.2,17.8-56.1,25.9c-0.5,0.2-0.6,0.3-1.1,0.6c-3,1.8-4.7,3.2-5.6,6.1
		c-0.2,0.6-0.4,1.1-0.6,1.9c-3.9,16-6.1,30.1-7.9,46.9c-1.4,13-2.1,26.2-2.1,39.6c0,19.1,1.4,37.8,4.2,56.2
		C82.9,228.6,85.4,241,88.5,253.1z"/>
	
		<linearGradient id="SVGID_2_" gradientUnits="userSpaceOnUse" x1="16.9288" y1="285.3759" x2="235.4588" y2="200.9134" gradientTransform="matrix(1 0 0 -1 0 411.5378)">
		<stop  offset="2.180000e-02" style="stop-color:#1CE0FF"/>
		<stop  offset="0.286" style="stop-color:#27B6F5"/>
		<stop  offset="0.5306" style="stop-color:#328CEB"/>
		<stop  offset="0.9988" style="stop-color:#5528DC"/>
	</linearGradient>
	<path class="st3" d="M4.5,105.9c9,33.5,20.5,68.6,39.4,89.9c5.6,5.5,9.4,7.6,22.6,13.1c0.3,0.1,0.5,0.2,0.5,0.1s0.1-0.2,0-0.4
		c-12.8-41-19.5-82.8-20.3-127.9c0-0.2,0-0.4,0-0.6c-0.2-4.8-4.1-8.6-9-8.6c-1.5,0-3,0.4-4.2,1.1c-0.3,0.2-0.6,0.4-0.9,0.6
		c-6.5,4-13.2,8.1-19.5,12c-0.9,0.6-1.8,1.1-2.7,1.7c-4.2,3.1-6.9,8.1-6.9,13.7c0,1.1,0.1,2.1,0.3,3.1
		C4.1,104.3,4.3,105.1,4.5,105.9z"/>
	
		<linearGradient id="SVGID_3_" gradientUnits="userSpaceOnUse" x1="26.1818" y1="309.316" x2="244.7117" y2="224.8535" gradientTransform="matrix(1 0 0 -1 0 411.5378)">
		<stop  offset="2.180000e-02" style="stop-color:#1CE0FF"/>
		<stop  offset="0.286" style="stop-color:#27B6F5"/>
		<stop  offset="0.5306" style="stop-color:#328CEB"/>
		<stop  offset="0.9988" style="stop-color:#5528DC"/>
	</linearGradient>
	<path class="st4" d="M394.3,18.3C391.5,11.1,384.6,5,376.2,5h-92.6c-8.9,0-14.4,5-20.1,11.6c-0.4,0.5-0.9,1.1-1.3,1.6
		c-0.6,0.8-1.2,1.5-1.9,2.2c-46.7,57.3-78.1,124-92.9,199.4c-1.9,9.6-3.5,19.4-4.7,29.3c-2.5,19.1-3.8,38.5-3.8,58.2
		c0,0.5,0,0.9,0,1.4c0,4.3-0.2,7.3,0.5,15.9c3,24.3,16.9,51.9,33.8,72.4c0.9,1.4,1.9,2.6,3.1,3.7c2.9,2.5,6.6,4,10.7,4
		c8.2,0,15-6.1,16.1-14.1c0-0.2,0.1-0.4,0.1-0.7c2.4-17.5,5.4-34.7,9.2-51.7c0,0,0-0.1,0-0.1c16.6-74.4,42.9-146.7,83.8-208.2
		c12.2-18.4,25.4-36.1,39.5-53c9.1-11,16.7-19.6,26.5-29.9c0.4-0.4,1-1.1,1.7-1.8C394.9,33.1,397.2,26.9,394.3,18.3z"/>
</g>
</svg>
